<mxfile host="app.diagrams.net" modified="2023-11-14T06:59:51.967Z" agent="Mozilla/5.0 (Windows NT 10.0; Win64; x64) AppleWebKit/537.36 (KHTML, like Gecko) Chrome/119.0.0.0 Safari/537.36" etag="d065mx_aG7dKidNlk6S1" version="22.1.0" type="github">
  <diagram name="Страница — 1" id="nn6fOCbwuxDBQ1-xhjB6">
    <mxGraphModel dx="1235" dy="666" grid="1" gridSize="10" guides="1" tooltips="1" connect="1" arrows="1" fold="1" page="1" pageScale="1" pageWidth="827" pageHeight="1169" math="0" shadow="0">
      <root>
        <mxCell id="0" />
        <mxCell id="1" parent="0" />
        <mxCell id="fHhfG_kIIaSSJRMBJUWa-1" value="User&lt;br&gt;" style="shape=umlActor;verticalLabelPosition=bottom;verticalAlign=top;html=1;outlineConnect=0;" vertex="1" parent="1">
          <mxGeometry x="20" y="255" width="30" height="60" as="geometry" />
        </mxCell>
        <mxCell id="fHhfG_kIIaSSJRMBJUWa-2" value="" style="whiteSpace=wrap;html=1;aspect=fixed;" vertex="1" parent="1">
          <mxGeometry x="110" y="5" width="760" height="760" as="geometry" />
        </mxCell>
        <mxCell id="fHhfG_kIIaSSJRMBJUWa-4" value="" style="endArrow=none;html=1;rounded=0;entryX=0;entryY=0.5;entryDx=0;entryDy=0;" edge="1" parent="1" source="fHhfG_kIIaSSJRMBJUWa-1" target="fHhfG_kIIaSSJRMBJUWa-5">
          <mxGeometry width="50" height="50" relative="1" as="geometry">
            <mxPoint x="90" y="300" as="sourcePoint" />
            <mxPoint x="160" y="250" as="targetPoint" />
          </mxGeometry>
        </mxCell>
        <mxCell id="fHhfG_kIIaSSJRMBJUWa-5" value="Поиск музыки" style="ellipse;whiteSpace=wrap;html=1;" vertex="1" parent="1">
          <mxGeometry x="195" y="380" width="90" height="60" as="geometry" />
        </mxCell>
        <mxCell id="fHhfG_kIIaSSJRMBJUWa-6" value="Поиск через сервер itunes" style="ellipse;whiteSpace=wrap;html=1;" vertex="1" parent="1">
          <mxGeometry x="300" y="440" width="95" height="60" as="geometry" />
        </mxCell>
        <mxCell id="fHhfG_kIIaSSJRMBJUWa-7" value="" style="endArrow=classic;html=1;rounded=0;entryX=1;entryY=1;entryDx=0;entryDy=0;" edge="1" parent="1" source="fHhfG_kIIaSSJRMBJUWa-6" target="fHhfG_kIIaSSJRMBJUWa-5">
          <mxGeometry width="50" height="50" relative="1" as="geometry">
            <mxPoint x="242.5" y="279.28932188134524" as="sourcePoint" />
            <mxPoint x="240" y="270" as="targetPoint" />
          </mxGeometry>
        </mxCell>
        <mxCell id="fHhfG_kIIaSSJRMBJUWa-8" value="Создание плейлиста" style="ellipse;whiteSpace=wrap;html=1;" vertex="1" parent="1">
          <mxGeometry x="200" y="310" width="85" height="60" as="geometry" />
        </mxCell>
        <mxCell id="fHhfG_kIIaSSJRMBJUWa-9" value="Назвать плейлист" style="ellipse;whiteSpace=wrap;html=1;" vertex="1" parent="1">
          <mxGeometry x="414" y="360" width="80" height="50" as="geometry" />
        </mxCell>
        <mxCell id="fHhfG_kIIaSSJRMBJUWa-10" value="Добавить обложку плейлиста" style="ellipse;whiteSpace=wrap;html=1;" vertex="1" parent="1">
          <mxGeometry x="494" y="310" width="80" height="60" as="geometry" />
        </mxCell>
        <mxCell id="fHhfG_kIIaSSJRMBJUWa-11" value="Добавить описание плейлиста" style="ellipse;whiteSpace=wrap;html=1;" vertex="1" parent="1">
          <mxGeometry x="419" y="270" width="75" height="50" as="geometry" />
        </mxCell>
        <mxCell id="fHhfG_kIIaSSJRMBJUWa-13" value="" style="endArrow=classic;html=1;rounded=0;entryX=1;entryY=1;entryDx=0;entryDy=0;dashed=1;" edge="1" parent="1" source="fHhfG_kIIaSSJRMBJUWa-9" target="fHhfG_kIIaSSJRMBJUWa-8">
          <mxGeometry width="50" height="50" relative="1" as="geometry">
            <mxPoint x="219.28932188134524" y="445" as="sourcePoint" />
            <mxPoint x="219.28932188134524" y="395" as="targetPoint" />
          </mxGeometry>
        </mxCell>
        <mxCell id="fHhfG_kIIaSSJRMBJUWa-14" value="" style="endArrow=classic;html=1;rounded=0;exitX=0;exitY=0.5;exitDx=0;exitDy=0;dashed=1;" edge="1" parent="1" source="fHhfG_kIIaSSJRMBJUWa-11" target="fHhfG_kIIaSSJRMBJUWa-8">
          <mxGeometry width="50" height="50" relative="1" as="geometry">
            <mxPoint x="300" y="290" as="sourcePoint" />
            <mxPoint x="350" y="240" as="targetPoint" />
          </mxGeometry>
        </mxCell>
        <mxCell id="fHhfG_kIIaSSJRMBJUWa-15" value="" style="endArrow=classic;html=1;rounded=0;entryX=1;entryY=0.5;entryDx=0;entryDy=0;dashed=1;" edge="1" parent="1" source="fHhfG_kIIaSSJRMBJUWa-10" target="fHhfG_kIIaSSJRMBJUWa-8">
          <mxGeometry width="50" height="50" relative="1" as="geometry">
            <mxPoint x="219.28932188134524" y="370" as="sourcePoint" />
            <mxPoint x="270" y="320" as="targetPoint" />
            <Array as="points" />
          </mxGeometry>
        </mxCell>
        <mxCell id="fHhfG_kIIaSSJRMBJUWa-16" value="" style="endArrow=none;html=1;rounded=0;entryX=0;entryY=0.5;entryDx=0;entryDy=0;" edge="1" parent="1" source="fHhfG_kIIaSSJRMBJUWa-1" target="fHhfG_kIIaSSJRMBJUWa-8">
          <mxGeometry width="50" height="50" relative="1" as="geometry">
            <mxPoint x="90" y="300" as="sourcePoint" />
            <mxPoint x="160.71067811865476" y="250" as="targetPoint" />
          </mxGeometry>
        </mxCell>
        <mxCell id="fHhfG_kIIaSSJRMBJUWa-17" value="Добавление трека в избранное" style="ellipse;whiteSpace=wrap;html=1;" vertex="1" parent="1">
          <mxGeometry x="200" y="145" width="80" height="60" as="geometry" />
        </mxCell>
        <mxCell id="fHhfG_kIIaSSJRMBJUWa-18" value="Сохранение трека в плейлист" style="ellipse;whiteSpace=wrap;html=1;" vertex="1" parent="1">
          <mxGeometry x="195" y="220" width="80" height="60" as="geometry" />
        </mxCell>
        <mxCell id="fHhfG_kIIaSSJRMBJUWa-19" value="" style="endArrow=none;html=1;rounded=0;entryX=0;entryY=0.5;entryDx=0;entryDy=0;" edge="1" parent="1" source="fHhfG_kIIaSSJRMBJUWa-1" target="fHhfG_kIIaSSJRMBJUWa-18">
          <mxGeometry width="50" height="50" relative="1" as="geometry">
            <mxPoint x="90" y="300" as="sourcePoint" />
            <mxPoint x="160.71067811865476" y="250" as="targetPoint" />
          </mxGeometry>
        </mxCell>
        <mxCell id="fHhfG_kIIaSSJRMBJUWa-20" value="" style="endArrow=none;dashed=1;html=1;rounded=0;horizontal=0;startArrow=classicThin;startFill=1;exitX=0;exitY=0.5;exitDx=0;exitDy=0;entryX=1;entryY=0.5;entryDx=0;entryDy=0;" edge="1" parent="1" source="fHhfG_kIIaSSJRMBJUWa-21" target="fHhfG_kIIaSSJRMBJUWa-18">
          <mxGeometry width="50" height="50" relative="1" as="geometry">
            <mxPoint x="360" y="230" as="sourcePoint" />
            <mxPoint x="410" y="180" as="targetPoint" />
          </mxGeometry>
        </mxCell>
        <mxCell id="fHhfG_kIIaSSJRMBJUWa-21" value="Выбрать плейлист" style="ellipse;whiteSpace=wrap;html=1;" vertex="1" parent="1">
          <mxGeometry x="350" y="225" width="80" height="50" as="geometry" />
        </mxCell>
        <mxCell id="fHhfG_kIIaSSJRMBJUWa-22" value="&quot;include&quot;" style="text;html=1;strokeColor=none;fillColor=none;align=center;verticalAlign=middle;whiteSpace=wrap;rounded=0;" vertex="1" parent="1">
          <mxGeometry x="275" y="225" width="60" height="30" as="geometry" />
        </mxCell>
        <mxCell id="fHhfG_kIIaSSJRMBJUWa-23" value="" style="endArrow=none;html=1;rounded=0;entryX=0;entryY=0.5;entryDx=0;entryDy=0;" edge="1" parent="1" source="fHhfG_kIIaSSJRMBJUWa-1" target="fHhfG_kIIaSSJRMBJUWa-17">
          <mxGeometry width="50" height="50" relative="1" as="geometry">
            <mxPoint x="90" y="300" as="sourcePoint" />
            <mxPoint x="160.71067811865476" y="250" as="targetPoint" />
          </mxGeometry>
        </mxCell>
        <mxCell id="fHhfG_kIIaSSJRMBJUWa-24" value="Выбор музыки без поиска" style="ellipse;whiteSpace=wrap;html=1;" vertex="1" parent="1">
          <mxGeometry x="195" y="60" width="85" height="70" as="geometry" />
        </mxCell>
        <mxCell id="fHhfG_kIIaSSJRMBJUWa-25" value="" style="endArrow=none;html=1;rounded=0;entryX=0;entryY=0.5;entryDx=0;entryDy=0;" edge="1" parent="1" source="fHhfG_kIIaSSJRMBJUWa-1" target="fHhfG_kIIaSSJRMBJUWa-24">
          <mxGeometry width="50" height="50" relative="1" as="geometry">
            <mxPoint x="90" y="300" as="sourcePoint" />
            <mxPoint x="160.71067811865476" y="250" as="targetPoint" />
          </mxGeometry>
        </mxCell>
        <mxCell id="fHhfG_kIIaSSJRMBJUWa-26" value="Выбор трека по избранному" style="ellipse;whiteSpace=wrap;html=1;" vertex="1" parent="1">
          <mxGeometry x="319" y="10" width="95" height="60" as="geometry" />
        </mxCell>
        <mxCell id="fHhfG_kIIaSSJRMBJUWa-27" value="Выбор трека по плейлисту" style="ellipse;whiteSpace=wrap;html=1;" vertex="1" parent="1">
          <mxGeometry x="322.5" y="85" width="97.5" height="60" as="geometry" />
        </mxCell>
        <mxCell id="fHhfG_kIIaSSJRMBJUWa-29" value="" style="endArrow=classic;html=1;rounded=0;entryX=1;entryY=0;entryDx=0;entryDy=0;" edge="1" parent="1" source="fHhfG_kIIaSSJRMBJUWa-26" target="fHhfG_kIIaSSJRMBJUWa-24">
          <mxGeometry width="50" height="50" relative="1" as="geometry">
            <mxPoint x="245.28932188134524" y="90" as="sourcePoint" />
            <mxPoint x="245.28932188134524" y="40" as="targetPoint" />
          </mxGeometry>
        </mxCell>
        <mxCell id="fHhfG_kIIaSSJRMBJUWa-30" value="" style="endArrow=classic;html=1;rounded=0;exitX=0;exitY=0.5;exitDx=0;exitDy=0;entryX=1;entryY=0.5;entryDx=0;entryDy=0;" edge="1" parent="1" source="fHhfG_kIIaSSJRMBJUWa-27" target="fHhfG_kIIaSSJRMBJUWa-24">
          <mxGeometry width="50" height="50" relative="1" as="geometry">
            <mxPoint x="470" y="160" as="sourcePoint" />
            <mxPoint x="520" y="110" as="targetPoint" />
          </mxGeometry>
        </mxCell>
        <mxCell id="fHhfG_kIIaSSJRMBJUWa-31" value="&quot;extend&quot;" style="text;html=1;strokeColor=none;fillColor=none;align=center;verticalAlign=middle;whiteSpace=wrap;rounded=0;rotation=345;" vertex="1" parent="1">
          <mxGeometry x="300" y="290" width="60" height="30" as="geometry" />
        </mxCell>
        <mxCell id="fHhfG_kIIaSSJRMBJUWa-33" value="&quot;extend&quot;" style="text;html=1;strokeColor=none;fillColor=none;align=center;verticalAlign=middle;whiteSpace=wrap;rounded=0;" vertex="1" parent="1">
          <mxGeometry x="370" y="330" width="60" height="30" as="geometry" />
        </mxCell>
        <mxCell id="fHhfG_kIIaSSJRMBJUWa-34" value="&quot;extend&quot;" style="text;html=1;strokeColor=none;fillColor=none;align=center;verticalAlign=middle;whiteSpace=wrap;rounded=0;rotation=8;" vertex="1" parent="1">
          <mxGeometry x="322.5" y="370" width="60" height="30" as="geometry" />
        </mxCell>
        <mxCell id="fHhfG_kIIaSSJRMBJUWa-35" value="Перейти в настройки" style="ellipse;whiteSpace=wrap;html=1;" vertex="1" parent="1">
          <mxGeometry x="205" y="510" width="95" height="70" as="geometry" />
        </mxCell>
        <mxCell id="fHhfG_kIIaSSJRMBJUWa-36" value="" style="endArrow=none;html=1;rounded=0;entryX=0;entryY=0;entryDx=0;entryDy=0;" edge="1" parent="1" source="fHhfG_kIIaSSJRMBJUWa-1" target="fHhfG_kIIaSSJRMBJUWa-35">
          <mxGeometry width="50" height="50" relative="1" as="geometry">
            <mxPoint x="90" y="300" as="sourcePoint" />
            <mxPoint x="160.71067811865476" y="250" as="targetPoint" />
          </mxGeometry>
        </mxCell>
        <mxCell id="fHhfG_kIIaSSJRMBJUWa-38" value="Поделиться приложение&amp;nbsp;" style="ellipse;whiteSpace=wrap;html=1;" vertex="1" parent="1">
          <mxGeometry x="267.5" y="630" width="85" height="70" as="geometry" />
        </mxCell>
        <mxCell id="fHhfG_kIIaSSJRMBJUWa-39" value="Написать в тех. поддержку" style="ellipse;whiteSpace=wrap;html=1;" vertex="1" parent="1">
          <mxGeometry x="350" y="585" width="85" height="65" as="geometry" />
        </mxCell>
        <mxCell id="fHhfG_kIIaSSJRMBJUWa-40" value="Прочитать пользовательское соглашение" style="ellipse;whiteSpace=wrap;html=1;" vertex="1" parent="1">
          <mxGeometry x="379" y="515" width="115" height="60" as="geometry" />
        </mxCell>
        <mxCell id="fHhfG_kIIaSSJRMBJUWa-41" value="Изменить тему приложения" style="ellipse;whiteSpace=wrap;html=1;" vertex="1" parent="1">
          <mxGeometry x="160" y="660" width="90" height="70" as="geometry" />
        </mxCell>
        <mxCell id="fHhfG_kIIaSSJRMBJUWa-42" value="" style="endArrow=classic;html=1;rounded=0;dashed=1;entryX=1;entryY=0.5;entryDx=0;entryDy=0;exitX=0;exitY=0.5;exitDx=0;exitDy=0;" edge="1" parent="1" source="fHhfG_kIIaSSJRMBJUWa-40" target="fHhfG_kIIaSSJRMBJUWa-35">
          <mxGeometry width="50" height="50" relative="1" as="geometry">
            <mxPoint x="504" y="350" as="sourcePoint" />
            <mxPoint x="295" y="350" as="targetPoint" />
            <Array as="points" />
          </mxGeometry>
        </mxCell>
        <mxCell id="fHhfG_kIIaSSJRMBJUWa-43" value="" style="endArrow=classic;html=1;rounded=0;entryX=1;entryY=1;entryDx=0;entryDy=0;dashed=1;exitX=0;exitY=0;exitDx=0;exitDy=0;" edge="1" parent="1" source="fHhfG_kIIaSSJRMBJUWa-39" target="fHhfG_kIIaSSJRMBJUWa-35">
          <mxGeometry width="50" height="50" relative="1" as="geometry">
            <mxPoint x="514" y="360" as="sourcePoint" />
            <mxPoint x="305" y="360" as="targetPoint" />
            <Array as="points" />
          </mxGeometry>
        </mxCell>
        <mxCell id="fHhfG_kIIaSSJRMBJUWa-44" value="" style="endArrow=classic;html=1;rounded=0;entryX=0.5;entryY=1;entryDx=0;entryDy=0;dashed=1;exitX=0;exitY=0;exitDx=0;exitDy=0;" edge="1" parent="1" source="fHhfG_kIIaSSJRMBJUWa-38" target="fHhfG_kIIaSSJRMBJUWa-35">
          <mxGeometry width="50" height="50" relative="1" as="geometry">
            <mxPoint x="524" y="370" as="sourcePoint" />
            <mxPoint x="315" y="370" as="targetPoint" />
            <Array as="points" />
          </mxGeometry>
        </mxCell>
        <mxCell id="fHhfG_kIIaSSJRMBJUWa-45" value="" style="endArrow=classic;html=1;rounded=0;entryX=0;entryY=1;entryDx=0;entryDy=0;dashed=1;exitX=0.5;exitY=0;exitDx=0;exitDy=0;" edge="1" parent="1" source="fHhfG_kIIaSSJRMBJUWa-41" target="fHhfG_kIIaSSJRMBJUWa-35">
          <mxGeometry width="50" height="50" relative="1" as="geometry">
            <mxPoint x="534" y="380" as="sourcePoint" />
            <mxPoint x="325" y="380" as="targetPoint" />
            <Array as="points" />
          </mxGeometry>
        </mxCell>
        <mxCell id="fHhfG_kIIaSSJRMBJUWa-46" value="&quot;extend&quot;" style="text;html=1;strokeColor=none;fillColor=none;align=center;verticalAlign=middle;whiteSpace=wrap;rounded=0;" vertex="1" parent="1">
          <mxGeometry x="319" y="520" width="60" height="30" as="geometry" />
        </mxCell>
        <mxCell id="fHhfG_kIIaSSJRMBJUWa-47" value="&quot;extend&quot;" style="text;html=1;strokeColor=none;fillColor=none;align=center;verticalAlign=middle;whiteSpace=wrap;rounded=0;rotation=14;" vertex="1" parent="1">
          <mxGeometry x="310" y="555" width="50" height="30" as="geometry" />
        </mxCell>
        <mxCell id="fHhfG_kIIaSSJRMBJUWa-48" value="&quot;extend&quot;" style="text;html=1;strokeColor=none;fillColor=none;align=center;verticalAlign=middle;whiteSpace=wrap;rounded=0;rotation=60;" vertex="1" parent="1">
          <mxGeometry x="257.5" y="585" width="52.5" height="35" as="geometry" />
        </mxCell>
        <mxCell id="fHhfG_kIIaSSJRMBJUWa-49" value="&quot;extend&quot;" style="text;html=1;strokeColor=none;fillColor=none;align=center;verticalAlign=middle;whiteSpace=wrap;rounded=0;rotation=100;" vertex="1" parent="1">
          <mxGeometry x="200" y="605" width="50" height="25" as="geometry" />
        </mxCell>
      </root>
    </mxGraphModel>
  </diagram>
</mxfile>
